HIERARCHY
ROOT Hips
{
	OFFSET 0.00000 0.00000 0.00000
	CHANNELS 6 Xposition Yposition Zposition Zrotation Yrotation Xrotation 
	JOINT LHipJoint
	{
		OFFSET 0 0 0
		CHANNELS 3 Zrotation Yrotation Xrotation
		JOINT LeftUpLeg
		{
			OFFSET 1.55766 -1.60504 1.11378
			CHANNELS 3 Zrotation Yrotation Xrotation
			JOINT LeftLeg
			{
				OFFSET 2.29047 -6.29302 0.00000
				CHANNELS 3 Zrotation Yrotation Xrotation
				JOINT LeftFoot
				{
					OFFSET 2.52265 -6.93093 0.00000
					CHANNELS 3 Zrotation Yrotation Xrotation
					JOINT LeftToeBase
					{
						OFFSET 0.17633 -0.48446 2.02656
						CHANNELS 3 Zrotation Yrotation Xrotation
						End Site
						{
							OFFSET 0.00000 -0.00000 1.04989
						}
					}
				}
			}
		}
	}
	JOINT RHipJoint
	{
		OFFSET 0 0 0
		CHANNELS 3 Zrotation Yrotation Xrotation
		JOINT RightUpLeg
		{
			OFFSET -1.48599 -1.60504 1.11378
			CHANNELS 3 Zrotation Yrotation Xrotation
			JOINT RightLeg
			{
				OFFSET -2.27280 -6.24448 0.00000
				CHANNELS 3 Zrotation Yrotation Xrotation
				JOINT RightFoot
				{
					OFFSET -2.50834 -6.89161 0.00000
					CHANNELS 3 Zrotation Yrotation Xrotation
					JOINT RightToeBase
					{
						OFFSET -0.26967 -0.74090 2.08741
						CHANNELS 3 Zrotation Yrotation Xrotation
						End Site
						{
							OFFSET -0.00000 -0.00000 1.10614
						}
					}
				}
			}
		}
	}
	JOINT LowerBack
	{
		OFFSET 0 0 0
		CHANNELS 3 Zrotation Yrotation Xrotation
		JOINT Spine
		{
			OFFSET 0.06481 2.02437 -0.08472
			CHANNELS 3 Zrotation Yrotation Xrotation
			JOINT Spine1
			{
				OFFSET 0.00015 1.96711 0.18069
				CHANNELS 3 Zrotation Yrotation Xrotation
				JOINT Neck
				{
					OFFSET 0 0 0
					CHANNELS 3 Zrotation Yrotation Xrotation
					JOINT Neck1
					{
						OFFSET -0.29961 1.68293 -0.13041
						CHANNELS 3 Zrotation Yrotation Xrotation
						JOINT Head
						{
							OFFSET 0.59697 1.61501 -0.14669
							CHANNELS 3 Zrotation Yrotation Xrotation
							End Site
							{
								OFFSET 0.22973 1.74906 -0.10148
							}
						}
					}
				}
				JOINT LeftShoulder
				{
					OFFSET 0 0 0
					CHANNELS 3 Zrotation Yrotation Xrotation
					JOINT LeftArm
					{
						OFFSET 3.37968 1.02893 0.31147
						CHANNELS 3 Zrotation Yrotation Xrotation
						JOINT LeftForeArm
						{
							OFFSET 5.19807 -0.00000 -0.00000
							CHANNELS 3 Zrotation Yrotation Xrotation
							JOINT LeftHand
							{
								OFFSET 3.09370 -0.00000 -0.00000
								CHANNELS 3 Zrotation Yrotation Xrotation
								JOINT LeftFingerBase
								{
									OFFSET 0 0 0
									CHANNELS 3 Zrotation Yrotation Xrotation
									JOINT LeftHandIndex1
									{
										OFFSET 0.67263 -0.00000 -0.00000
										CHANNELS 3 Zrotation Yrotation Xrotation
										End Site
										{
											OFFSET 0.54229 -0.00000 -0.00000
										}
									}
								}
								JOINT LThumb
								{
									OFFSET 0 0 0
									CHANNELS 3 Zrotation Yrotation Xrotation
									End Site
									{
										OFFSET 0.55057 -0.00000 0.55057
									}
								}
							}
						}
					}
				}
				JOINT RightShoulder
				{
					OFFSET 0 0 0
					CHANNELS 3 Zrotation Yrotation Xrotation
					JOINT RightArm
					{
						OFFSET -3.38254 0.96355 -0.16120
						CHANNELS 3 Zrotation Yrotation Xrotation
						JOINT RightForeArm
						{
							OFFSET -5.45222 -0.00000 -0.00000
							CHANNELS 3 Zrotation Yrotation Xrotation
							JOINT RightHand
							{
								OFFSET -3.01284 -0.00000 -0.00000
								CHANNELS 3 Zrotation Yrotation Xrotation
								JOINT RightFingerBase
								{
									OFFSET 0 0 0
									CHANNELS 3 Zrotation Yrotation Xrotation
									JOINT RightHandIndex1
									{
										OFFSET -0.62230 -0.00000 -0.00000
										CHANNELS 3 Zrotation Yrotation Xrotation
										End Site
										{
											OFFSET -0.50171 -0.00000 -0.00000
										}
									}
								}
								JOINT RThumb
								{
									OFFSET 0 0 0
									CHANNELS 3 Zrotation Yrotation Xrotation
									End Site
									{
										OFFSET -0.50937 -0.00000 0.50937
									}
								}
							}
						}
					}
				}
			}
		}
	}
}
MOTION
Frames: 5
Frame Time: .0083333
4.2079 15.2741 12.0358 -10.3242 -0.0101 12.0757 0.0000 0.0000 0.0000 -1.5713 -13.9083 -44.8692 15.9580 19.6037 78.1066 0.6331 -1.5784 -14.5731 2.7812 -10.3322 -30.0593 0.0000 0.0000 0.0000 33.5730 7.5821 -16.3582 -5.2809 -13.6933 42.0226 -1.7664 12.5439 -24.1137 -1.7046 8.2217 -23.3894 12.6484 4.6745 4.0354 1.6305 7.4072 -5.8128 -5.9406 2.9852 -7.1555 -32.6310 -10.6102 25.8058 39.3748 -21.6515 -10.2412 20.2021 -13.4636 1.7512 0.0000 0.0000 0.0000 -84.5743 30.1188 46.0212 84.1995 -59.8725 -54.9788 -0.0000 0.0000 -38.7384 18.6751 -6.0008 -2.0237 -7.1250 0.0000 -0.0000 -5.9532 23.6541 3.0805 0.0000 0.0000 0.0000 85.7075 -0.1812 53.5330 -75.3176 59.1696 -47.3202 0.0000 0.0000 0.1034 -7.6796 -15.5112 2.0652 7.1250 -0.0000 -0.0000 18.4203 -44.7972 0.0955
4.2272 15.3295 12.3269 -10.2399 0.3837 12.0770 0.0000 0.0000 0.0000 -1.5140 -14.7302 -45.6125 15.1164 19.4183 75.5871 0.6474 0.0236 -15.2151 2.6633 -10.1289 -29.3951 0.0000 0.0000 0.0000 33.6563 7.1110 -14.4695 -4.9112 -13.2831 40.4376 -1.6486 12.0911 -23.2754 -1.8791 8.6095 -24.5812 12.6317 4.8083 3.8917 1.5060 7.5624 -5.8953 -6.0597 3.0595 -7.1179 -32.4729 -10.8382 26.2116 39.5419 -21.9960 -10.4532 20.2222 -13.6927 1.7782 0.0000 0.0000 0.0000 -85.0409 30.9274 45.0925 84.7793 -59.8968 -55.4803 -0.0000 0.0000 -39.7530 18.3914 -5.9178 -1.9633 -7.1250 0.0000 -0.0000 -6.1650 23.7517 3.1774 0.0000 0.0000 0.0000 85.9271 -0.3169 52.8945 -75.1666 59.1521 -47.1904 0.0000 0.0000 0.9055 -8.1817 -14.7388 2.0949 7.1250 -0.0000 -0.0000 17.7144 -44.1160 0.3996
4.2439 15.3899 12.6201 -10.1328 0.6073 12.2054 0.0000 0.0000 0.0000 -1.5018 -15.3225 -46.3272 14.1884 19.1702 72.7790 0.6451 1.5195 -15.7970 2.5195 -9.8732 -28.5672 0.0000 0.0000 0.0000 33.6844 6.8183 -12.6693 -4.5531 -12.8621 38.8544 -1.4982 11.7007 -22.1929 -2.0361 8.9408 -25.6103 12.4926 4.9945 3.6543 1.3736 7.7652 -5.9988 -6.1136 3.1660 -7.0507 -32.3208 -11.0595 26.5670 39.7160 -22.3132 -10.6834 20.2470 -13.9047 1.8002 0.0000 0.0000 0.0000 -85.5022 31.7311 44.0637 85.5800 -59.9260 -56.1731 -0.0000 0.0000 -40.6812 17.7651 -5.6422 -1.8042 -7.1250 0.0000 -0.0000 -6.6365 24.0617 3.3757 0.0000 0.0000 0.0000 86.1167 -0.4985 52.3298 -75.0749 59.1413 -47.1118 0.0000 0.0000 1.5523 -8.7832 -14.0292 2.1450 7.1250 -0.0000 -0.0000 16.9571 -43.4994 0.6478
4.2587 15.4546 12.9161 -10.0074 0.7120 12.4460 0.0000 0.0000 0.0000 -1.5257 -15.7392 -47.0011 13.1855 18.8481 69.7007 0.6324 2.8464 -16.3222 2.3745 -9.6060 -27.7100 0.0000 0.0000 0.0000 33.6598 6.6355 -10.9817 -4.2118 -12.4371 37.2963 -1.3240 11.3918 -20.8991 -2.1777 9.2268 -26.5074 12.2562 5.2165 3.3194 1.2346 7.9968 -6.1291 -6.1122 3.2934 -6.9604 -32.1760 -11.2677 26.9126 39.8943 -22.6040 -10.9444 20.2818 -14.1031 1.8070 0.0000 -0.0000 0.0000 -85.9485 32.5401 42.9568 86.4550 -59.9525 -56.9304 -0.0000 0.0000 -41.2053 16.7724 -5.3060 -1.5965 -7.1250 0.0000 -0.0000 -7.3857 24.4418 3.6972 0.0000 -0.0000 0.0000 86.2768 -0.7449 51.8311 -75.0679 59.1405 -47.1057 0.0000 0.0000 2.0440 -9.3994 -13.4133 2.1991 7.1250 -0.0000 -0.0000 16.2294 -42.9688 0.8372
4.2715 15.5231 13.2157 -9.8609 0.7004 12.7930 0.0000 0.0000 0.0000 -1.5899 -15.9928 -47.6248 12.1212 18.4414 66.3724 0.6148 3.9589 -16.7794 2.2460 -9.3606 -26.9300 0.0000 0.0000 0.0000 33.5698 6.5409 -9.4155 -3.8894 -12.0118 35.7737 -1.1306 11.1878 -19.4009 -2.3047 9.4738 -27.2889 11.9244 5.4733 2.8651 1.0860 8.2525 -6.2701 -6.0547 3.4419 -6.8181 -32.0383 -11.4730 27.2010 40.0773 -22.8760 -11.2062 20.3165 -14.2880 1.8176 -0.0000 0.0000 0.0000 -86.3714 33.3215 41.8033 87.3708 -59.9739 -57.7232 -0.0000 0.0000 -41.2855 15.5805 -5.0070 -1.3941 -7.1250 0.0000 -0.0000 -8.2862 24.7818 4.0907 -0.0000 0.0000 0.0000 86.4066 -1.0255 51.4133 -75.1401 59.1490 -47.1678 0.0000 0.0000 2.3640 -10.0641 -12.9155 2.2717 7.1250 -0.0000 -0.0000 15.5041 -42.5524 0.9615
